<svg width="127pt" height="44pt" viewBox="0 0 127 44" xmlns="http://www.w3.org/2000/svg"><g id="fontsvg1705332360886" stroke-linecap="round" fill-rule="evenodd" fill="#ffffff"><path d="M 103.767 27.6 L 103.317 28.4 L 100.917 34.5 Q 100.417 35.9 100.017 37.4 A 28.586 28.586 0 0 1 99.657 38.641 Q 99.464 39.251 99.261 39.784 A 16.505 16.505 0 0 1 99.167 40.025 A 4.052 4.052 0 0 1 98.43 41.233 A 3.724 3.724 0 0 1 97.792 41.8 A 6.769 6.769 0 0 1 95.788 42.755 A 7.605 7.605 0 0 1 95.717 42.775 A 7.5 7.5 0 0 1 93.667 43.057 A 7.976 7.976 0 0 1 93.342 43.05 Q 92.117 43 91.167 42.6 A 3.667 3.667 0 0 1 90.368 42.108 Q 89.157 41.103 89.667 39.3 Q 91.916 29.424 93.902 23.372 A 84.318 84.318 0 0 1 93.992 23.1 A 453.969 453.969 0 0 1 94.96 20.213 Q 95.914 17.402 96.682 15.284 A 133.973 133.973 0 0 1 97.342 13.5 A 1230.726 1230.726 0 0 0 98.698 9.9 A 1442.707 1442.707 0 0 0 100.117 6.1 A 4.424 4.424 0 0 1 101.189 3.645 A 5.469 5.469 0 0 1 101.317 3.5 Q 102.367 2.35 103.792 1.6 Q 105.217 0.85 106.767 0.525 A 8.936 8.936 0 0 1 107.691 0.379 Q 108.526 0.294 109.243 0.401 A 4.892 4.892 0 0 1 109.517 0.45 Q 110.717 0.7 111.292 1.55 A 1.757 1.757 0 0 1 111.559 2.221 Q 111.695 2.948 111.367 4 Q 109.567 8.6 108.817 10.5 A 976.808 976.808 0 0 1 108.146 12.193 Q 107.785 13.103 107.467 13.9 L 106.067 17.2 Q 106.865 17.238 107.982 17.045 A 17.08 17.08 0 0 0 108.717 16.9 A 30.271 30.271 0 0 1 109.89 16.66 Q 111.896 16.293 112.917 16.45 Q 112.917 16.218 113.132 15.685 A 8.184 8.184 0 0 1 113.167 15.6 A 121.859 121.859 0 0 1 114.952 8.709 A 97.368 97.368 0 0 1 116.317 4.4 A 5.88 5.88 0 0 1 117.94 1.688 Q 118.975 0.733 120.541 0.315 A 10.151 10.151 0 0 1 122.767 0 A 6.702 6.702 0 0 1 123.947 0.097 Q 125.144 0.312 125.867 1 Q 127.017 2.05 126.167 3.85 A 443.723 443.723 0 0 0 124.035 9.96 Q 121.092 18.613 119.667 24.2 Q 117.517 32.8 116.842 35.8 A 40.847 40.847 0 0 1 116.595 36.839 Q 116.209 38.363 115.887 39.005 A 1.563 1.563 0 0 1 115.667 39.35 A 3.886 3.886 0 0 1 115.256 39.743 Q 115.02 39.937 114.777 40.061 A 2.196 2.196 0 0 1 114.642 40.125 Q 114.117 40.35 113.617 40.55 A 1.063 1.063 0 0 0 113.224 40.833 Q 113.098 40.971 112.991 41.165 A 2.905 2.905 0 0 0 112.817 41.55 L 112.667 41.55 A 2.116 2.116 0 0 1 112.07 42.317 Q 111.623 42.688 110.917 42.95 Q 109.567 43.45 108.192 43.325 A 4.053 4.053 0 0 1 106.893 42.997 A 3.574 3.574 0 0 1 105.892 42.325 Q 104.967 41.45 105.417 39.65 A 34.35 34.35 0 0 1 106.158 36.406 A 45.152 45.152 0 0 1 107.067 33.525 Q 108.217 30.25 108.892 28.4 Q 109.567 26.55 110.017 24.95 A 4.479 4.479 0 0 1 109.55 25.152 A 3.622 3.622 0 0 1 109.242 25.25 A 3.196 3.196 0 0 0 108.963 25.34 Q 108.677 25.445 108.317 25.625 Q 107.767 25.9 107.192 26.1 Q 106.617 26.3 106.067 26.5 Q 104.667 27.05 103.767 27.6 Z M 6.142 14.725 A 70.017 70.017 0 0 0 5.828 15.664 Q 5.282 17.335 4.517 19.9 A 256.855 256.855 0 0 0 2.865 25.853 Q 0.631 34.327 0.217 38.85 A 3.281 3.281 0 0 0 0.147 39.02 Q -0.337 40.306 0.772 40.919 A 3.105 3.105 0 0 0 1.317 41.15 A 4.686 4.686 0 0 0 2.768 41.374 Q 3.872 41.374 5.117 40.9 A 8.3 8.3 0 0 0 5.62 40.708 Q 6.34 40.404 6.877 40.004 A 3.761 3.761 0 0 0 8.217 38.25 A 40.15 40.15 0 0 1 8.591 37.697 Q 8.956 37.17 9.242 36.8 Q 9.567 36.379 10.127 35.284 A 39.683 39.683 0 0 0 10.492 34.55 A 13.511 13.511 0 0 0 10.868 33.678 Q 11.716 31.55 13.317 26.35 Q 13.579 26.831 14.224 31.026 A 231.913 231.913 0 0 1 14.417 32.3 Q 14.867 35.4 15.417 37.15 Q 16.367 40.4 17.667 40.5 Q 19.767 40.7 20.917 40.5 A 2.425 2.425 0 0 0 20.932 40.497 Q 21.607 40.342 22.835 39.662 A 26.424 26.424 0 0 0 23.717 39.15 A 1.996 1.996 0 0 0 24.366 38.643 Q 25.597 37.295 27.317 32.8 Q 28.317 30.3 29.367 27.25 Q 30.417 24.2 31.442 21.25 A 217.511 217.511 0 0 1 32.46 18.381 A 185.562 185.562 0 0 1 33.467 15.675 Q 34.467 13.05 35.417 11.275 Q 36.237 9.742 36.237 7.818 A 9.488 9.488 0 0 0 36.217 7.2 A 26.137 26.137 0 0 0 36.168 6.814 Q 36.127 6.503 36.082 6.226 A 14.233 14.233 0 0 0 35.992 5.725 A 1.465 1.465 0 0 1 35.963 5.437 Q 35.963 5.135 36.085 4.816 A 2.578 2.578 0 0 1 36.292 4.4 A 1.613 1.613 0 0 0 36.429 4.118 Q 36.57 3.734 36.447 3.365 A 1.367 1.367 0 0 0 36.292 3.05 Q 35.867 2.4 34.817 2.2 Q 33.034 1.823 31.063 2.41 A 11.432 11.432 0 0 0 29.217 3.15 A 11.231 11.231 0 0 0 29.003 3.261 A 8.579 8.579 0 0 0 24.667 8.4 Q 24.267 10.1 22.717 13.4 Q 22.167 14.7 21.592 15.975 A 58.474 58.474 0 0 0 21.178 16.914 A 48.564 48.564 0 0 0 20.567 18.4 A 121.393 121.393 0 0 0 20.468 17.535 Q 20.008 13.607 19.467 11.35 A 13.973 13.973 0 0 0 19.314 10.821 Q 18.887 9.435 17.817 6.68 A 215.373 215.373 0 0 0 17.017 4.65 Q 15.767 3.75 14.617 3.75 A 3.953 3.953 0 0 0 13.785 3.838 A 4.308 4.308 0 0 0 12.417 4.4 A 7.143 7.143 0 0 0 11.444 5.128 A 9.173 9.173 0 0 0 10.442 6.175 A 16.566 16.566 0 0 0 10.213 6.46 A 18.206 18.206 0 0 0 8.742 8.65 Q 7.967 10 7.367 11.45 A 48.309 48.309 0 0 0 6.76 12.994 A 65.809 65.809 0 0 0 6.142 14.725 Z M 72.241 3.721 A 16.445 16.445 0 0 0 69.567 6.2 Q 63.317 13.45 60.917 24.25 A 38.304 38.304 0 0 0 60.721 25.192 Q 59.761 30.133 60.471 33.738 A 10.542 10.542 0 0 0 66.367 41.55 A 8.845 8.845 0 0 0 69.129 42.751 A 12.373 12.373 0 0 0 71.567 43.1 Q 76.567 43.4 80.167 40.65 A 16.43 16.43 0 0 0 80.653 40.324 A 17.579 17.579 0 0 0 84.217 37 A 37.43 37.43 0 0 0 88.921 29.605 A 45.828 45.828 0 0 0 92.367 19.55 A 43.347 43.347 0 0 0 92.488 18.987 Q 93.604 13.648 92.999 9.669 A 14.261 14.261 0 0 0 92.017 6.15 A 20.042 20.042 0 0 0 91.749 5.435 A 15.887 15.887 0 0 0 91.392 4.6 A 17.206 17.206 0 0 1 91.248 4.284 Q 91.11 3.97 91.031 3.747 A 3.234 3.234 0 0 1 90.967 3.55 Q 89.067 1 86.367 0.5 A 7.577 7.577 0 0 0 85.966 0.436 Q 83.289 0.084 81.567 1.9 A 8.052 8.052 0 0 0 78.807 1.418 Q 78.534 1.418 78.257 1.436 A 9.672 9.672 0 0 0 76.567 1.7 A 11.902 11.902 0 0 0 72.241 3.721 Z M 55.517 17.85 L 55.717 17.9 A 0.3 0.3 0 0 1 55.75 17.902 Q 55.783 17.906 55.8 17.918 A 0.038 0.038 0 0 1 55.817 17.95 A 2.257 2.257 0 0 1 56.179 17.843 Q 57.2 17.636 57.914 18.625 A 3.25 3.25 0 0 1 57.967 18.7 A 3.913 3.913 0 0 1 58.286 19.319 Q 58.565 19.988 58.756 20.97 A 14.757 14.757 0 0 1 58.817 21.3 A 16.749 16.749 0 0 1 58.83 21.836 Q 58.852 24.155 58.317 27.95 A 991.888 991.888 0 0 0 57.922 30.931 Q 57.251 36.07 57.1 37.762 A 16.038 16.038 0 0 0 57.067 38.2 A 2.576 2.576 0 0 1 57.071 38.347 Q 57.071 39.978 54.917 40.6 Q 52.97 41.199 51.024 40.553 A 7.063 7.063 0 0 1 51.017 40.55 A 4.834 4.834 0 0 1 50.334 40.262 Q 49.09 39.61 49.294 38.505 A 1.969 1.969 0 0 1 49.317 38.4 A 5.84 5.84 0 0 1 49.067 38.827 Q 48.801 39.238 48.535 39.46 A 1.639 1.639 0 0 1 48.517 39.475 A 2.992 2.992 0 0 1 48.268 39.653 Q 47.843 39.931 47.021 40.336 A 28.562 28.562 0 0 1 46.942 40.375 A 7.51 7.51 0 0 1 46.065 40.731 Q 45.128 41.05 43.806 41.291 A 25.401 25.401 0 0 1 43.617 41.325 Q 41.467 41.7 39.317 41.525 A 11.228 11.228 0 0 1 36.538 40.954 A 10 10 0 0 1 35.392 40.475 A 4.616 4.616 0 0 1 33.766 39.182 A 4.606 4.606 0 0 1 33.017 37.75 Q 31.867 34.15 33.317 28.6 Q 34.317 24.95 36.917 22.15 Q 39.917 18.95 43.717 16.85 A 17.845 17.845 0 0 1 46.344 15.672 A 13.189 13.189 0 0 1 49.217 15 Q 50.117 14.9 50.792 15.05 Q 51.467 15.2 52.242 15.35 Q 53.017 15.5 53.717 15.8 A 4.866 4.866 0 0 1 54.461 16.182 Q 54.841 16.424 55.084 16.707 A 1.709 1.709 0 0 1 55.517 17.85 Z M 70.167 32.75 L 70.117 33.05 L 70.217 33.6 A 7.657 7.657 0 0 0 70.463 34.56 Q 70.623 35.041 70.838 35.424 A 3.463 3.463 0 0 0 71.217 35.975 A 8.703 8.703 0 0 0 71.551 36.349 Q 71.882 36.696 72.146 36.875 A 1.443 1.443 0 0 0 72.367 37 Q 72.867 36.6 73.367 36.25 Q 73.867 35.9 74.267 35.4 A 24.442 24.442 0 0 0 77.124 30.891 Q 78.557 28.013 79.567 24.4 A 42.412 42.412 0 0 0 80.74 18.857 Q 81.256 15.161 80.967 11.8 Q 79.017 14.3 76.867 17.55 A 111.036 111.036 0 0 0 75.409 19.809 Q 74.833 20.727 74.348 21.55 A 50.669 50.669 0 0 0 73.467 23.1 Q 71.287 27.192 70.511 30.67 A 18.315 18.315 0 0 0 70.167 32.75 Z M 46.267 31.1 A 5.619 5.619 0 0 0 46.54 30.447 Q 46.711 29.957 46.842 29.35 A 20.919 20.919 0 0 1 47.11 28.25 A 28.26 28.26 0 0 1 47.467 27.05 Q 43.417 28.7 41.267 31.1 A 7.567 7.567 0 0 0 40.796 31.682 Q 39.359 33.67 41.18 34.582 A 4.08 4.08 0 0 0 41.567 34.75 A 6.222 6.222 0 0 0 42.163 34.876 Q 44.008 35.168 44.917 34 A 5.147 5.147 0 0 0 45.316 33.372 Q 45.49 33.052 45.646 32.676 A 8.895 8.895 0 0 0 45.717 32.5 A 17.086 17.086 0 0 1 46.269 31.239 A 20.036 20.036 0 0 1 46.567 30.65 A 5.826 5.826 0 0 1 46.398 30.916 A 4.623 4.623 0 0 1 46.267 31.1 Z M 108.967 25.05 A 0.168 0.168 0 0 0 108.997 25.045 Q 109.097 25.023 109.467 24.9 Q 109.181 24.995 108.987 25.045 A 3.646 3.646 0 0 1 108.967 25.05 Z" vector-effect="non-scaling-stroke"/></g></svg>